<svg xmlns="http://www.w3.org/2000/svg" xmlns:xlink="http://www.w3.org/1999/xlink" width="150" zoomAndPan="magnify" viewBox="0 0 112.5 32.999998" height="44" preserveAspectRatio="xMidYMid meet" version="1.0"><defs><g/><clipPath id="9a504b588c"><path d="M 8.867188 1.292969 L 33.507812 1.292969 L 33.507812 31.90625 L 8.867188 31.90625 Z M 8.867188 1.292969 " clip-rule="nonzero"/></clipPath></defs><g clip-path="url(#9a504b588c)"><path fill="#ffffff" d="M 23.921875 29.773438 L 23.714844 30.613281 C 23.570312 31.195312 23.222656 31.707031 22.621094 31.707031 L 19.820312 31.707031 C 19.21875 31.707031 18.871094 31.195312 18.726562 30.613281 L 18.519531 29.773438 C 18.492188 29.664062 18.492188 29.554688 18.515625 29.441406 C 18.539062 29.332031 18.585938 29.230469 18.65625 29.140625 C 18.726562 29.050781 18.8125 28.980469 18.914062 28.929688 C 19.015625 28.882812 19.125 28.859375 19.238281 28.859375 L 23.203125 28.859375 C 23.316406 28.859375 23.425781 28.882812 23.527344 28.933594 C 23.628906 28.980469 23.714844 29.050781 23.785156 29.140625 C 23.855469 29.230469 23.902344 29.332031 23.925781 29.441406 C 23.949219 29.554688 23.949219 29.664062 23.921875 29.773438 M 28.453125 20.714844 C 28.65625 20.714844 28.832031 20.640625 28.976562 20.496094 C 29.121094 20.351562 29.191406 20.179688 29.191406 19.976562 L 29.191406 13.984375 C 29.191406 13.78125 29.117188 13.609375 28.972656 13.46875 C 28.828125 13.324219 28.65625 13.25 28.453125 13.25 C 23.632812 13.25 18.808594 13.25 13.988281 13.25 C 13.785156 13.25 13.609375 13.324219 13.464844 13.46875 C 13.320312 13.613281 13.25 13.785156 13.246094 13.992188 L 13.246094 19.976562 C 13.25 20.179688 13.320312 20.355469 13.46875 20.5 C 13.613281 20.644531 13.789062 20.714844 13.992188 20.714844 Z M 25 15.351562 C 25.179688 15.351562 25.355469 15.382812 25.519531 15.453125 C 25.390625 15.550781 25.316406 15.679688 25.304688 15.84375 C 25.292969 16.003906 25.34375 16.144531 25.460938 16.257812 C 25.574219 16.375 25.714844 16.425781 25.875 16.414062 C 26.039062 16.402344 26.167969 16.328125 26.265625 16.199219 C 26.339844 16.378906 26.375 16.570312 26.367188 16.765625 C 26.359375 16.964844 26.3125 17.152344 26.226562 17.328125 C 26.136719 17.503906 26.019531 17.65625 25.867188 17.78125 C 25.714844 17.90625 25.542969 17.992188 25.351562 18.042969 C 25.160156 18.09375 24.96875 18.101562 24.773438 18.070312 C 24.578125 18.039062 24.398438 17.96875 24.234375 17.859375 C 24.070312 17.75 23.9375 17.609375 23.835938 17.441406 C 23.730469 17.273438 23.664062 17.09375 23.640625 16.898438 C 23.613281 16.703125 23.628906 16.511719 23.6875 16.320312 C 23.746094 16.132812 23.839844 15.964844 23.96875 15.816406 C 24.097656 15.667969 24.253906 15.554688 24.433594 15.472656 C 24.613281 15.390625 24.800781 15.351562 25 15.351562 Z M 17.441406 15.351562 C 17.621094 15.351562 17.796875 15.382812 17.964844 15.453125 C 17.832031 15.550781 17.761719 15.679688 17.75 15.84375 C 17.738281 16.003906 17.789062 16.144531 17.902344 16.257812 C 18.019531 16.375 18.15625 16.425781 18.320312 16.414062 C 18.480469 16.402344 18.609375 16.328125 18.707031 16.199219 C 18.78125 16.378906 18.816406 16.570312 18.808594 16.765625 C 18.804688 16.964844 18.757812 17.152344 18.667969 17.328125 C 18.582031 17.503906 18.460938 17.652344 18.308594 17.777344 C 18.15625 17.902344 17.984375 17.992188 17.792969 18.042969 C 17.605469 18.09375 17.410156 18.101562 17.21875 18.070312 C 17.023438 18.039062 16.84375 17.964844 16.679688 17.855469 C 16.515625 17.746094 16.382812 17.609375 16.277344 17.441406 C 16.175781 17.273438 16.109375 17.09375 16.085938 16.898438 C 16.058594 16.703125 16.074219 16.507812 16.132812 16.320312 C 16.191406 16.132812 16.28125 15.964844 16.414062 15.816406 C 16.542969 15.667969 16.699219 15.554688 16.878906 15.472656 C 17.058594 15.390625 17.246094 15.351562 17.441406 15.351562 Z M 33.574219 13.117188 L 33.574219 20.847656 C 33.574219 21.125 33.546875 21.402344 33.488281 21.675781 C 33.433594 21.949219 33.355469 22.214844 33.246094 22.46875 C 33.140625 22.726562 33.007812 22.972656 32.855469 23.203125 C 32.699219 23.4375 32.523438 23.648438 32.324219 23.847656 C 32.128906 24.042969 31.914062 24.222656 31.683594 24.375 C 31.449219 24.53125 31.207031 24.660156 30.949219 24.769531 C 30.691406 24.875 30.425781 24.957031 30.152344 25.011719 C 29.878906 25.066406 29.601562 25.09375 29.324219 25.097656 L 25.070312 25.097656 L 24.65625 26.789062 C 24.617188 26.957031 24.527344 27.09375 24.394531 27.199219 C 24.257812 27.304688 24.105469 27.355469 23.933594 27.355469 L 18.503906 27.355469 C 18.335938 27.355469 18.179688 27.304688 18.046875 27.199219 C 17.914062 27.09375 17.824219 26.957031 17.785156 26.789062 L 17.371094 25.097656 L 13.117188 25.097656 C 12.839844 25.09375 12.5625 25.066406 12.289062 25.011719 C 12.015625 24.957031 11.75 24.875 11.492188 24.769531 C 11.234375 24.660156 10.992188 24.53125 10.757812 24.375 C 10.527344 24.222656 10.3125 24.042969 10.117188 23.847656 C 9.917969 23.648438 9.742188 23.4375 9.585938 23.203125 C 9.433594 22.972656 9.300781 22.726562 9.195312 22.46875 C 9.085938 22.214844 9.007812 21.949219 8.953125 21.675781 C 8.894531 21.402344 8.867188 21.125 8.867188 20.847656 L 8.867188 13.109375 C 8.867188 12.832031 8.894531 12.554688 8.953125 12.28125 C 9.007812 12.007812 9.085938 11.742188 9.195312 11.484375 C 9.300781 11.226562 9.433594 10.984375 9.585938 10.75 C 9.742188 10.519531 9.917969 10.304688 10.117188 10.109375 C 10.3125 9.910156 10.527344 9.734375 10.757812 9.582031 C 10.992188 9.425781 11.234375 9.292969 11.492188 9.1875 C 11.75 9.078125 12.015625 9 12.289062 8.945312 C 12.5625 8.890625 12.839844 8.859375 13.117188 8.859375 L 16.367188 8.859375 L 15.453125 5.054688 C 15.3125 5.046875 15.171875 5.023438 15.035156 4.980469 C 14.902344 4.941406 14.769531 4.882812 14.648438 4.8125 C 14.523438 4.742188 14.414062 4.65625 14.308594 4.558594 C 14.207031 4.460938 14.117188 4.351562 14.039062 4.234375 C 13.960938 4.113281 13.898438 3.988281 13.851562 3.851562 C 13.804688 3.71875 13.773438 3.582031 13.761719 3.441406 C 13.746094 3.300781 13.746094 3.15625 13.765625 3.015625 C 13.785156 2.875 13.820312 2.738281 13.871094 2.605469 C 13.921875 2.472656 13.988281 2.351562 14.070312 2.234375 C 14.152344 2.117188 14.242188 2.011719 14.351562 1.914062 C 14.457031 1.820312 14.570312 1.738281 14.695312 1.671875 C 14.820312 1.605469 14.953125 1.550781 15.089844 1.515625 C 15.226562 1.480469 15.367188 1.460938 15.507812 1.457031 C 15.652344 1.453125 15.792969 1.464844 15.929688 1.496094 C 16.070312 1.527344 16.203125 1.570312 16.332031 1.632812 C 16.457031 1.695312 16.578125 1.769531 16.6875 1.859375 C 16.796875 1.949219 16.894531 2.050781 16.980469 2.164062 C 17.070312 2.277344 17.140625 2.398438 17.199219 2.53125 C 17.253906 2.660156 17.296875 2.792969 17.320312 2.933594 C 17.347656 3.074219 17.355469 3.214844 17.347656 3.355469 C 17.339844 3.5 17.316406 3.636719 17.273438 3.773438 C 17.234375 3.910156 17.175781 4.039062 17.105469 4.164062 C 17.035156 4.285156 16.949219 4.398438 16.851562 4.5 C 16.753906 4.601562 16.644531 4.691406 16.523438 4.769531 L 17.875 8.863281 L 24.566406 8.863281 L 25.914062 4.769531 C 25.792969 4.691406 25.6875 4.601562 25.585938 4.5 C 25.488281 4.398438 25.402344 4.285156 25.332031 4.160156 C 25.261719 4.039062 25.203125 3.910156 25.164062 3.773438 C 25.121094 3.636719 25.097656 3.5 25.089844 3.355469 C 25.082031 3.214844 25.089844 3.074219 25.117188 2.933594 C 25.140625 2.792969 25.183594 2.660156 25.242188 2.527344 C 25.296875 2.398438 25.371094 2.277344 25.457031 2.164062 C 25.542969 2.050781 25.640625 1.949219 25.75 1.859375 C 25.859375 1.769531 25.980469 1.695312 26.109375 1.632812 C 26.234375 1.570312 26.371094 1.523438 26.507812 1.496094 C 26.648438 1.464844 26.789062 1.453125 26.929688 1.453125 C 27.074219 1.457031 27.210938 1.476562 27.347656 1.515625 C 27.488281 1.550781 27.617188 1.601562 27.742188 1.671875 C 27.867188 1.738281 27.984375 1.820312 28.089844 1.914062 C 28.195312 2.007812 28.289062 2.113281 28.371094 2.230469 C 28.449219 2.347656 28.515625 2.472656 28.566406 2.605469 C 28.617188 2.738281 28.652344 2.875 28.671875 3.015625 C 28.691406 3.15625 28.695312 3.300781 28.679688 3.441406 C 28.664062 3.582031 28.632812 3.71875 28.585938 3.855469 C 28.539062 3.988281 28.476562 4.113281 28.398438 4.234375 C 28.324219 4.351562 28.230469 4.460938 28.128906 4.558594 C 28.027344 4.65625 27.914062 4.742188 27.789062 4.8125 C 27.667969 4.886719 27.539062 4.941406 27.402344 4.980469 C 27.265625 5.023438 27.125 5.046875 26.984375 5.054688 L 26.074219 8.859375 L 29.324219 8.859375 C 29.601562 8.859375 29.878906 8.890625 30.152344 8.945312 C 30.425781 9 30.691406 9.078125 30.949219 9.1875 C 31.207031 9.292969 31.453125 9.425781 31.683594 9.582031 C 31.914062 9.734375 32.128906 9.914062 32.328125 10.109375 C 32.523438 10.308594 32.699219 10.523438 32.855469 10.753906 C 33.011719 10.984375 33.140625 11.230469 33.25 11.488281 C 33.355469 11.746094 33.4375 12.011719 33.492188 12.285156 C 33.546875 12.558594 33.574219 12.835938 33.574219 13.113281 Z M 33.574219 13.117188 " fill-opacity="1" fill-rule="evenodd"/></g><g fill="#ffffff" fill-opacity="1"><g transform="translate(39.43889, 17.758651)"><g><path d="M 5.71875 -8.65625 L 5.71875 -6.578125 L 4.796875 -6.578125 C 4.160156 -6.578125 3.644531 -6.382812 3.25 -6 C 2.851562 -5.625 2.65625 -5.066406 2.65625 -4.328125 C 2.65625 -3.597656 2.851562 -3.039062 3.25 -2.65625 C 3.644531 -2.269531 4.15625 -2.078125 4.78125 -2.078125 L 5.71875 -2.078125 L 5.71875 0 L 4.375 0 C 3.8125 0 3.285156 -0.113281 2.796875 -0.34375 C 2.316406 -0.570312 1.898438 -0.878906 1.546875 -1.265625 C 1.191406 -1.660156 0.910156 -2.117188 0.703125 -2.640625 C 0.503906 -3.160156 0.40625 -3.722656 0.40625 -4.328125 C 0.40625 -4.921875 0.503906 -5.484375 0.703125 -6.015625 C 0.910156 -6.546875 1.191406 -7.003906 1.546875 -7.390625 C 1.898438 -7.785156 2.316406 -8.09375 2.796875 -8.3125 C 3.285156 -8.539062 3.8125 -8.65625 4.375 -8.65625 Z M 5.71875 -8.65625 "/></g></g></g><g fill="#ffffff" fill-opacity="1"><g transform="translate(45.626482, 17.758651)"><g><path d="M 6.546875 -3 C 6.546875 -2.582031 6.460938 -2.179688 6.296875 -1.796875 C 6.128906 -1.421875 5.90625 -1.085938 5.625 -0.796875 C 5.34375 -0.503906 5.015625 -0.269531 4.640625 -0.09375 C 4.265625 0.0703125 3.863281 0.15625 3.4375 0.15625 C 3.019531 0.15625 2.625 0.0703125 2.25 -0.09375 C 1.875 -0.269531 1.539062 -0.503906 1.25 -0.796875 C 0.96875 -1.085938 0.742188 -1.421875 0.578125 -1.796875 C 0.410156 -2.179688 0.328125 -2.582031 0.328125 -3 C 0.328125 -3.425781 0.410156 -3.828125 0.578125 -4.203125 C 0.742188 -4.585938 0.96875 -4.921875 1.25 -5.203125 C 1.539062 -5.492188 1.875 -5.722656 2.25 -5.890625 C 2.625 -6.066406 3.019531 -6.15625 3.4375 -6.15625 C 3.863281 -6.15625 4.265625 -6.066406 4.640625 -5.890625 C 5.015625 -5.722656 5.34375 -5.492188 5.625 -5.203125 C 5.90625 -4.910156 6.128906 -4.570312 6.296875 -4.1875 C 6.460938 -3.8125 6.546875 -3.414062 6.546875 -3 Z M 3.4375 -1.734375 C 3.613281 -1.734375 3.773438 -1.765625 3.921875 -1.828125 C 4.066406 -1.898438 4.191406 -1.992188 4.296875 -2.109375 C 4.410156 -2.234375 4.492188 -2.375 4.546875 -2.53125 C 4.609375 -2.6875 4.640625 -2.84375 4.640625 -3 C 4.640625 -3.164062 4.609375 -3.328125 4.546875 -3.484375 C 4.492188 -3.640625 4.414062 -3.773438 4.3125 -3.890625 C 4.207031 -4.015625 4.078125 -4.109375 3.921875 -4.171875 C 3.773438 -4.242188 3.609375 -4.28125 3.421875 -4.28125 C 3.253906 -4.28125 3.097656 -4.242188 2.953125 -4.171875 C 2.804688 -4.109375 2.675781 -4.015625 2.5625 -3.890625 C 2.457031 -3.773438 2.375 -3.640625 2.3125 -3.484375 C 2.257812 -3.328125 2.234375 -3.164062 2.234375 -3 C 2.234375 -2.84375 2.257812 -2.6875 2.3125 -2.53125 C 2.375 -2.375 2.457031 -2.234375 2.5625 -2.109375 C 2.675781 -1.992188 2.804688 -1.898438 2.953125 -1.828125 C 3.109375 -1.765625 3.269531 -1.734375 3.4375 -1.734375 Z M 3.4375 -1.734375 "/></g></g></g><g fill="#ffffff" fill-opacity="1"><g transform="translate(52.507086, 17.758651)"><g><path d="M 4.8125 -5.328125 C 5.03125 -5.566406 5.289062 -5.765625 5.59375 -5.921875 C 5.894531 -6.078125 6.203125 -6.15625 6.515625 -6.15625 C 6.867188 -6.15625 7.203125 -6.09375 7.515625 -5.96875 C 7.828125 -5.851562 8.09375 -5.691406 8.3125 -5.484375 C 8.539062 -5.285156 8.71875 -5.050781 8.84375 -4.78125 C 8.976562 -4.507812 9.046875 -4.222656 9.046875 -3.921875 L 9.046875 0 L 7.0625 0 L 7.0625 -3.59375 C 7.0625 -3.757812 7.015625 -3.910156 6.921875 -4.046875 C 6.835938 -4.179688 6.675781 -4.25 6.4375 -4.25 C 6.195312 -4.25 6.03125 -4.179688 5.9375 -4.046875 C 5.84375 -3.910156 5.796875 -3.757812 5.796875 -3.59375 L 5.796875 0 L 3.828125 0 L 3.828125 -3.59375 C 3.828125 -3.757812 3.78125 -3.910156 3.6875 -4.046875 C 3.59375 -4.179688 3.425781 -4.25 3.1875 -4.25 C 2.945312 -4.25 2.78125 -4.179688 2.6875 -4.046875 C 2.601562 -3.910156 2.5625 -3.757812 2.5625 -3.59375 L 2.5625 0 L 0.578125 0 L 0.578125 -3.921875 C 0.578125 -4.222656 0.640625 -4.507812 0.765625 -4.78125 C 0.898438 -5.050781 1.078125 -5.285156 1.296875 -5.484375 C 1.523438 -5.691406 1.789062 -5.851562 2.09375 -5.96875 C 2.40625 -6.09375 2.742188 -6.15625 3.109375 -6.15625 C 3.421875 -6.15625 3.726562 -6.078125 4.03125 -5.921875 C 4.332031 -5.765625 4.59375 -5.566406 4.8125 -5.328125 Z M 4.8125 -5.328125 "/></g></g></g><g fill="#ffffff" fill-opacity="1"><g transform="translate(62.13498, 17.758651)"><g><path d="M 7.234375 -3 C 7.234375 -2.53125 7.144531 -2.097656 6.96875 -1.703125 C 6.800781 -1.316406 6.570312 -0.988281 6.28125 -0.71875 C 5.988281 -0.445312 5.644531 -0.234375 5.25 -0.078125 C 4.863281 0.078125 4.453125 0.15625 4.015625 0.15625 C 3.785156 0.15625 3.59375 0.140625 3.4375 0.109375 C 3.28125 0.078125 3.15625 0.0390625 3.0625 0 L 3.0625 -1.828125 C 3.101562 -1.796875 3.191406 -1.757812 3.328125 -1.71875 C 3.472656 -1.675781 3.65625 -1.65625 3.875 -1.65625 C 4.070312 -1.65625 4.253906 -1.6875 4.421875 -1.75 C 4.585938 -1.820312 4.726562 -1.914062 4.84375 -2.03125 C 4.96875 -2.15625 5.066406 -2.296875 5.140625 -2.453125 C 5.210938 -2.617188 5.25 -2.800781 5.25 -3 C 5.25 -3.394531 5.117188 -3.71875 4.859375 -3.96875 C 4.609375 -4.226562 4.285156 -4.359375 3.890625 -4.359375 C 3.648438 -4.359375 3.441406 -4.316406 3.265625 -4.234375 C 3.085938 -4.148438 2.941406 -4.035156 2.828125 -3.890625 C 2.710938 -3.753906 2.625 -3.59375 2.5625 -3.40625 C 2.507812 -3.21875 2.484375 -3.019531 2.484375 -2.8125 L 2.484375 2.59375 L 0.5 2.59375 L 0.5 -3.296875 C 0.5 -3.722656 0.585938 -4.109375 0.765625 -4.453125 C 0.941406 -4.804688 1.179688 -5.109375 1.484375 -5.359375 C 1.796875 -5.609375 2.15625 -5.800781 2.5625 -5.9375 C 2.976562 -6.082031 3.429688 -6.15625 3.921875 -6.15625 C 4.398438 -6.15625 4.84375 -6.070312 5.25 -5.90625 C 5.65625 -5.75 6.003906 -5.523438 6.296875 -5.234375 C 6.585938 -4.953125 6.816406 -4.617188 6.984375 -4.234375 C 7.148438 -3.847656 7.234375 -3.4375 7.234375 -3 Z M 7.234375 -3 "/></g></g></g><g fill="#ffffff" fill-opacity="1"><g transform="translate(69.696219, 17.758651)"><g><path d="M 2.40625 -6.015625 L 2.40625 -2.53125 C 2.40625 -2.300781 2.460938 -2.109375 2.578125 -1.953125 C 2.703125 -1.804688 2.875 -1.734375 3.09375 -1.734375 C 3.3125 -1.734375 3.476562 -1.804688 3.59375 -1.953125 C 3.71875 -2.109375 3.78125 -2.300781 3.78125 -2.53125 L 3.78125 -6.015625 L 5.6875 -6.015625 L 5.6875 -2.53125 C 5.6875 -2.132812 5.625 -1.773438 5.5 -1.453125 C 5.382812 -1.128906 5.21875 -0.847656 5 -0.609375 C 4.78125 -0.378906 4.507812 -0.191406 4.1875 -0.046875 C 3.875 0.0859375 3.507812 0.15625 3.09375 0.15625 C 2.675781 0.15625 2.304688 0.0859375 1.984375 -0.046875 C 1.671875 -0.179688 1.40625 -0.367188 1.1875 -0.609375 C 0.96875 -0.847656 0.796875 -1.128906 0.671875 -1.453125 C 0.554688 -1.773438 0.5 -2.132812 0.5 -2.53125 L 0.5 -6.015625 Z M 2.40625 -6.015625 "/></g></g></g><g fill="#ffffff" fill-opacity="1"><g transform="translate(75.883811, 17.758651)"><g><path d="M 5.71875 -8.65625 L 5.71875 -6.578125 L 4.796875 -6.578125 C 4.160156 -6.578125 3.644531 -6.382812 3.25 -6 C 2.851562 -5.625 2.65625 -5.066406 2.65625 -4.328125 C 2.65625 -3.597656 2.851562 -3.039062 3.25 -2.65625 C 3.644531 -2.269531 4.15625 -2.078125 4.78125 -2.078125 L 5.71875 -2.078125 L 5.71875 0 L 4.375 0 C 3.8125 0 3.285156 -0.113281 2.796875 -0.34375 C 2.316406 -0.570312 1.898438 -0.878906 1.546875 -1.265625 C 1.191406 -1.660156 0.910156 -2.117188 0.703125 -2.640625 C 0.503906 -3.160156 0.40625 -3.722656 0.40625 -4.328125 C 0.40625 -4.921875 0.503906 -5.484375 0.703125 -6.015625 C 0.910156 -6.546875 1.191406 -7.003906 1.546875 -7.390625 C 1.898438 -7.785156 2.316406 -8.09375 2.796875 -8.3125 C 3.285156 -8.539062 3.8125 -8.65625 4.375 -8.65625 Z M 5.71875 -8.65625 "/></g></g></g><g fill="#ffffff" fill-opacity="1"><g transform="translate(82.071403, 17.758651)"><g><path d="M 2.703125 -8.65625 L 2.703125 0 L 0.734375 0 L 0.734375 -8.65625 Z M 2.703125 -8.65625 "/></g></g></g><g fill="#ffffff" fill-opacity="1"><g transform="translate(85.511705, 17.758651)"><g><path d="M 2.84375 -7.6875 C 2.84375 -7.363281 2.734375 -7.09375 2.515625 -6.875 C 2.296875 -6.664062 2.03125 -6.5625 1.71875 -6.5625 C 1.40625 -6.5625 1.140625 -6.664062 0.921875 -6.875 C 0.703125 -7.09375 0.59375 -7.363281 0.59375 -7.6875 C 0.59375 -8.007812 0.703125 -8.273438 0.921875 -8.484375 C 1.140625 -8.703125 1.40625 -8.8125 1.71875 -8.8125 C 2.03125 -8.8125 2.296875 -8.703125 2.515625 -8.484375 C 2.734375 -8.273438 2.84375 -8.007812 2.84375 -7.6875 Z M 2.703125 -6.015625 L 2.703125 0 L 0.734375 0 L 0.734375 -6.015625 Z M 2.703125 -6.015625 "/></g></g></g><g fill="#ffffff" fill-opacity="1"><g transform="translate(88.952006, 17.758651)"><g><path d="M 4.328125 -6.015625 L 4.328125 -4.21875 L 3.453125 -4.21875 C 3.078125 -4.21875 2.78125 -4.109375 2.5625 -3.890625 C 2.34375 -3.679688 2.234375 -3.382812 2.234375 -3 C 2.234375 -2.625 2.34375 -2.328125 2.5625 -2.109375 C 2.78125 -1.890625 3.078125 -1.78125 3.453125 -1.78125 L 4.328125 -1.78125 L 4.328125 0 L 3.109375 0 C 2.734375 0 2.375 -0.0703125 2.03125 -0.21875 C 1.6875 -0.363281 1.382812 -0.566406 1.125 -0.828125 C 0.863281 -1.085938 0.65625 -1.40625 0.5 -1.78125 C 0.34375 -2.15625 0.265625 -2.5625 0.265625 -3 C 0.265625 -3.457031 0.34375 -3.867188 0.5 -4.234375 C 0.664062 -4.609375 0.878906 -4.925781 1.140625 -5.1875 C 1.398438 -5.445312 1.703125 -5.648438 2.046875 -5.796875 C 2.390625 -5.941406 2.742188 -6.015625 3.109375 -6.015625 Z M 4.328125 -6.015625 "/></g></g></g><g fill="#ffffff" fill-opacity="1"><g transform="translate(93.765955, 17.758651)"><g><path d="M 2.46875 -8.65625 L 2.46875 -4.171875 L 2.5625 -4.171875 C 2.695312 -4.171875 2.8125 -4.191406 2.90625 -4.234375 C 3.007812 -4.285156 3.101562 -4.375 3.1875 -4.5 C 3.28125 -4.625 3.375 -4.804688 3.46875 -5.046875 C 3.5625 -5.296875 3.675781 -5.617188 3.8125 -6.015625 L 5.84375 -6.015625 L 5.28125 -4.4375 C 5.09375 -3.875 4.835938 -3.554688 4.515625 -3.484375 L 4.515625 -3.46875 C 4.742188 -3.382812 4.941406 -3.289062 5.109375 -3.1875 C 5.273438 -3.09375 5.40625 -2.972656 5.5 -2.828125 C 5.601562 -2.691406 5.675781 -2.523438 5.71875 -2.328125 C 5.769531 -2.140625 5.796875 -1.921875 5.796875 -1.671875 L 5.796875 0 L 3.890625 0 L 3.890625 -1.578125 C 3.890625 -1.828125 3.820312 -2.019531 3.6875 -2.15625 C 3.550781 -2.289062 3.363281 -2.359375 3.125 -2.359375 L 2.46875 -2.359375 L 2.46875 0 L 0.5 0 L 0.5 -8.65625 Z M 2.46875 -8.65625 "/></g></g></g><g fill="#ffffff" fill-opacity="1"><g transform="translate(56.291392, 23.969424)"><g><path d="M 0.890625 -2.015625 L 0.125 -2.015625 L 0.125 -2.53125 L 2.21875 -2.53125 L 2.21875 -2.015625 L 1.453125 -2.015625 L 1.453125 0 L 0.890625 0 Z M 0.890625 -2.015625 "/></g></g></g><g fill="#ffffff" fill-opacity="1"><g transform="translate(58.630953, 23.969424)"><g><path d="M 0.296875 -2.53125 L 2.203125 -2.53125 L 2.203125 -2.03125 L 0.859375 -2.03125 L 0.859375 -1.515625 L 2.046875 -1.515625 L 2.046875 -1.03125 L 0.859375 -1.03125 L 0.859375 -0.5 L 2.234375 -0.5 L 2.234375 0 L 0.296875 0 Z M 0.296875 -2.53125 "/></g></g></g><g fill="#ffffff" fill-opacity="1"><g transform="translate(61.049942, 23.969424)"><g><path d="M 1.484375 0.046875 C 1.296875 0.046875 1.125 0.015625 0.96875 -0.046875 C 0.8125 -0.117188 0.675781 -0.210938 0.5625 -0.328125 C 0.445312 -0.453125 0.351562 -0.59375 0.28125 -0.75 C 0.21875 -0.90625 0.1875 -1.070312 0.1875 -1.25 L 0.1875 -1.265625 C 0.1875 -1.441406 0.21875 -1.609375 0.28125 -1.765625 C 0.351562 -1.921875 0.445312 -2.054688 0.5625 -2.171875 C 0.675781 -2.296875 0.8125 -2.390625 0.96875 -2.453125 C 1.132812 -2.523438 1.316406 -2.5625 1.515625 -2.5625 C 1.628906 -2.5625 1.734375 -2.550781 1.828125 -2.53125 C 1.929688 -2.519531 2.019531 -2.492188 2.09375 -2.453125 C 2.175781 -2.421875 2.25 -2.378906 2.3125 -2.328125 C 2.382812 -2.285156 2.445312 -2.238281 2.5 -2.1875 L 2.15625 -1.765625 C 2.050781 -1.859375 1.945312 -1.929688 1.84375 -1.984375 C 1.75 -2.035156 1.632812 -2.0625 1.5 -2.0625 C 1.394531 -2.0625 1.296875 -2.039062 1.203125 -2 C 1.117188 -1.957031 1.039062 -1.898438 0.96875 -1.828125 C 0.90625 -1.753906 0.851562 -1.671875 0.8125 -1.578125 C 0.78125 -1.484375 0.765625 -1.378906 0.765625 -1.265625 C 0.765625 -1.148438 0.78125 -1.046875 0.8125 -0.953125 C 0.851562 -0.859375 0.90625 -0.773438 0.96875 -0.703125 C 1.039062 -0.628906 1.117188 -0.570312 1.203125 -0.53125 C 1.296875 -0.488281 1.394531 -0.46875 1.5 -0.46875 C 1.644531 -0.46875 1.765625 -0.492188 1.859375 -0.546875 C 1.960938 -0.597656 2.066406 -0.671875 2.171875 -0.765625 L 2.515625 -0.40625 C 2.453125 -0.332031 2.382812 -0.269531 2.3125 -0.21875 C 2.25 -0.164062 2.175781 -0.117188 2.09375 -0.078125 C 2.007812 -0.0351562 1.914062 -0.00390625 1.8125 0.015625 C 1.71875 0.0351562 1.609375 0.046875 1.484375 0.046875 Z M 1.484375 0.046875 "/></g></g></g><g fill="#ffffff" fill-opacity="1"><g transform="translate(63.714442, 23.969424)"><g><path d="M 0.296875 -2.53125 L 0.859375 -2.53125 L 0.859375 -1.53125 L 1.890625 -1.53125 L 1.890625 -2.53125 L 2.4375 -2.53125 L 2.4375 0 L 1.890625 0 L 1.890625 -1.015625 L 0.859375 -1.015625 L 0.859375 0 L 0.296875 0 Z M 0.296875 -2.53125 "/></g></g></g><g fill="#ffffff" fill-opacity="1"><g transform="translate(66.45837, 23.969424)"><g><path d="M 0.296875 -2.53125 L 0.8125 -2.53125 L 2 -0.96875 L 2 -2.53125 L 2.546875 -2.53125 L 2.546875 0 L 2.078125 0 L 0.859375 -1.609375 L 0.859375 0 L 0.296875 0 Z M 0.296875 -2.53125 "/></g></g></g><g fill="#ffffff" fill-opacity="1"><g transform="translate(69.310613, 23.969424)"><g><path d="M 1.53125 0.046875 C 1.332031 0.046875 1.148438 0.015625 0.984375 -0.046875 C 0.828125 -0.117188 0.6875 -0.210938 0.5625 -0.328125 C 0.445312 -0.453125 0.351562 -0.59375 0.28125 -0.75 C 0.21875 -0.90625 0.1875 -1.070312 0.1875 -1.25 L 0.1875 -1.265625 C 0.1875 -1.441406 0.21875 -1.609375 0.28125 -1.765625 C 0.351562 -1.921875 0.445312 -2.054688 0.5625 -2.171875 C 0.6875 -2.296875 0.832031 -2.390625 1 -2.453125 C 1.164062 -2.523438 1.34375 -2.5625 1.53125 -2.5625 C 1.726562 -2.5625 1.910156 -2.523438 2.078125 -2.453125 C 2.242188 -2.390625 2.382812 -2.300781 2.5 -2.1875 C 2.613281 -2.070312 2.703125 -1.9375 2.765625 -1.78125 C 2.835938 -1.625 2.875 -1.453125 2.875 -1.265625 C 2.875 -1.085938 2.835938 -0.914062 2.765625 -0.75 C 2.703125 -0.59375 2.609375 -0.453125 2.484375 -0.328125 C 2.367188 -0.210938 2.226562 -0.117188 2.0625 -0.046875 C 1.90625 0.015625 1.726562 0.046875 1.53125 0.046875 Z M 1.53125 -0.46875 C 1.644531 -0.46875 1.75 -0.488281 1.84375 -0.53125 C 1.9375 -0.570312 2.015625 -0.628906 2.078125 -0.703125 C 2.148438 -0.773438 2.203125 -0.859375 2.234375 -0.953125 C 2.273438 -1.046875 2.296875 -1.144531 2.296875 -1.25 L 2.296875 -1.265625 C 2.296875 -1.367188 2.273438 -1.46875 2.234375 -1.5625 C 2.203125 -1.664062 2.148438 -1.753906 2.078125 -1.828125 C 2.015625 -1.898438 1.9375 -1.957031 1.84375 -2 C 1.75 -2.039062 1.644531 -2.0625 1.53125 -2.0625 C 1.414062 -2.0625 1.3125 -2.039062 1.21875 -2 C 1.125 -1.957031 1.046875 -1.898438 0.984375 -1.828125 C 0.921875 -1.753906 0.867188 -1.671875 0.828125 -1.578125 C 0.785156 -1.484375 0.765625 -1.378906 0.765625 -1.265625 C 0.765625 -1.148438 0.785156 -1.046875 0.828125 -0.953125 C 0.867188 -0.859375 0.921875 -0.773438 0.984375 -0.703125 C 1.054688 -0.628906 1.140625 -0.570312 1.234375 -0.53125 C 1.328125 -0.488281 1.425781 -0.46875 1.53125 -0.46875 Z M 1.53125 -0.46875 "/></g></g></g><g fill="#ffffff" fill-opacity="1"><g transform="translate(72.37948, 23.969424)"><g><path d="M 0.296875 -2.53125 L 0.859375 -2.53125 L 0.859375 -0.5 L 2.125 -0.5 L 2.125 0 L 0.296875 0 Z M 0.296875 -2.53125 "/></g></g></g><g fill="#ffffff" fill-opacity="1"><g transform="translate(74.614338, 23.969424)"><g><path d="M 1.53125 0.046875 C 1.332031 0.046875 1.148438 0.015625 0.984375 -0.046875 C 0.828125 -0.117188 0.6875 -0.210938 0.5625 -0.328125 C 0.445312 -0.453125 0.351562 -0.59375 0.28125 -0.75 C 0.21875 -0.90625 0.1875 -1.070312 0.1875 -1.25 L 0.1875 -1.265625 C 0.1875 -1.441406 0.21875 -1.609375 0.28125 -1.765625 C 0.351562 -1.921875 0.445312 -2.054688 0.5625 -2.171875 C 0.6875 -2.296875 0.832031 -2.390625 1 -2.453125 C 1.164062 -2.523438 1.34375 -2.5625 1.53125 -2.5625 C 1.726562 -2.5625 1.910156 -2.523438 2.078125 -2.453125 C 2.242188 -2.390625 2.382812 -2.300781 2.5 -2.1875 C 2.613281 -2.070312 2.703125 -1.9375 2.765625 -1.78125 C 2.835938 -1.625 2.875 -1.453125 2.875 -1.265625 C 2.875 -1.085938 2.835938 -0.914062 2.765625 -0.75 C 2.703125 -0.59375 2.609375 -0.453125 2.484375 -0.328125 C 2.367188 -0.210938 2.226562 -0.117188 2.0625 -0.046875 C 1.90625 0.015625 1.726562 0.046875 1.53125 0.046875 Z M 1.53125 -0.46875 C 1.644531 -0.46875 1.75 -0.488281 1.84375 -0.53125 C 1.9375 -0.570312 2.015625 -0.628906 2.078125 -0.703125 C 2.148438 -0.773438 2.203125 -0.859375 2.234375 -0.953125 C 2.273438 -1.046875 2.296875 -1.144531 2.296875 -1.25 L 2.296875 -1.265625 C 2.296875 -1.367188 2.273438 -1.46875 2.234375 -1.5625 C 2.203125 -1.664062 2.148438 -1.753906 2.078125 -1.828125 C 2.015625 -1.898438 1.9375 -1.957031 1.84375 -2 C 1.75 -2.039062 1.644531 -2.0625 1.53125 -2.0625 C 1.414062 -2.0625 1.3125 -2.039062 1.21875 -2 C 1.125 -1.957031 1.046875 -1.898438 0.984375 -1.828125 C 0.921875 -1.753906 0.867188 -1.671875 0.828125 -1.578125 C 0.785156 -1.484375 0.765625 -1.378906 0.765625 -1.265625 C 0.765625 -1.148438 0.785156 -1.046875 0.828125 -0.953125 C 0.867188 -0.859375 0.921875 -0.773438 0.984375 -0.703125 C 1.054688 -0.628906 1.140625 -0.570312 1.234375 -0.53125 C 1.328125 -0.488281 1.425781 -0.46875 1.53125 -0.46875 Z M 1.53125 -0.46875 "/></g></g></g><g fill="#ffffff" fill-opacity="1"><g transform="translate(77.683205, 23.969424)"><g><path d="M 1.515625 0.046875 C 1.316406 0.046875 1.132812 0.015625 0.96875 -0.046875 C 0.8125 -0.117188 0.675781 -0.210938 0.5625 -0.328125 C 0.445312 -0.441406 0.351562 -0.578125 0.28125 -0.734375 C 0.21875 -0.890625 0.1875 -1.0625 0.1875 -1.25 L 0.1875 -1.265625 C 0.1875 -1.441406 0.21875 -1.609375 0.28125 -1.765625 C 0.351562 -1.921875 0.445312 -2.054688 0.5625 -2.171875 C 0.6875 -2.296875 0.828125 -2.390625 0.984375 -2.453125 C 1.148438 -2.523438 1.328125 -2.5625 1.515625 -2.5625 C 1.628906 -2.5625 1.734375 -2.550781 1.828125 -2.53125 C 1.921875 -2.519531 2.003906 -2.5 2.078125 -2.46875 C 2.160156 -2.445312 2.234375 -2.414062 2.296875 -2.375 C 2.367188 -2.332031 2.441406 -2.28125 2.515625 -2.21875 L 2.15625 -1.796875 C 2.113281 -1.835938 2.066406 -1.875 2.015625 -1.90625 C 1.960938 -1.9375 1.910156 -1.960938 1.859375 -1.984375 C 1.804688 -2.003906 1.75 -2.019531 1.6875 -2.03125 C 1.632812 -2.050781 1.570312 -2.0625 1.5 -2.0625 C 1.394531 -2.0625 1.296875 -2.039062 1.203125 -2 C 1.117188 -1.957031 1.046875 -1.898438 0.984375 -1.828125 C 0.921875 -1.753906 0.867188 -1.671875 0.828125 -1.578125 C 0.785156 -1.484375 0.765625 -1.378906 0.765625 -1.265625 C 0.765625 -1.148438 0.785156 -1.039062 0.828125 -0.9375 C 0.867188 -0.84375 0.921875 -0.757812 0.984375 -0.6875 C 1.054688 -0.613281 1.140625 -0.554688 1.234375 -0.515625 C 1.328125 -0.484375 1.425781 -0.46875 1.53125 -0.46875 C 1.738281 -0.46875 1.914062 -0.515625 2.0625 -0.609375 L 2.0625 -0.96875 L 1.5 -0.96875 L 1.5 -1.453125 L 2.59375 -1.453125 L 2.59375 -0.359375 C 2.46875 -0.242188 2.3125 -0.144531 2.125 -0.0625 C 1.945312 0.0078125 1.742188 0.046875 1.515625 0.046875 Z M 1.515625 0.046875 "/></g></g></g><g fill="#ffffff" fill-opacity="1"><g transform="translate(80.513785, 23.969424)"><g><path d="M 1.015625 -1 L 0.046875 -2.53125 L 0.6875 -2.53125 L 1.296875 -1.515625 L 1.90625 -2.53125 L 2.546875 -2.53125 L 1.5625 -1 L 1.5625 0 L 1.015625 0 Z M 1.015625 -1 "/></g></g></g></svg>